<svg xmlns="http://www.w3.org/2000/svg" xmlns:xlink="http://www.w3.org/1999/xlink" fill="none" version="1.1" width="348" height="80" viewBox="0 0 348 80"><g><g><path d="M0,25.999347686767578L17.0983,25.999347686767578C25.4304,25.999347686767578,32.185,32.71507768676758,32.185,40.99934768676758C32.185,49.28364768676758,25.4304,55.99934768676758,17.0983,55.99934768676758L0,55.99934768676758L0,25.999347686767578Z" fill="#FFFFFF" fill-opacity="1"/></g><g><path d="M34.196529388427734,0L55.317929388427736,0C65.87192938842773,0,74.42772938842774,8.50659,74.42772938842774,19C74.42772938842774,29.4934,65.87192938842773,38,55.317929388427736,38L34.196529388427734,38L34.196529388427734,0Z" fill="#FFFFFF" fill-opacity="1"/></g><g><path d="M34.196529388427734,40L62.358329388427734,40C73.46792938842773,40,82.47402938842774,48.95431,82.47402938842774,60C82.47402938842774,71.0457,73.46792938842773,80,62.358329388427734,80L34.196529388427734,80L34.196529388427734,40Z" fill="#FFFFFF" fill-opacity="1"/></g><g><path d="M233.34059197998047,10L215.23659197998046,10L236.35859197998047,68L252.45059197998046,68L272.56659197998044,12L280.6125919799805,12L285.6415919799805,2L273.5725919799805,2L269.5495919799805,10L256.4735919799805,10L244.40459197998047,48L233.34059197998047,10ZM156.90169197998046,10L172.99419197998049,10L172.99419197998049,44C172.99419197998049,49.5228,177.49719197998047,54,183.05199197998047,54C188.60679197998047,54,193.10979197998046,49.5228,193.10979197998046,44L193.10979197998046,10L209.20259197998047,10L209.20259197998047,44C209.20259197998047,58.3594,197.49439197998046,70,183.05199197998047,70C168.60959197998045,70,156.90169197998046,58.3594,156.90169197998046,44L156.90169197998046,10ZM323.86159197998046,10L283.62959197998043,10L283.62959197998043,68L323.86159197998046,68L323.86159197998046,57L299.7225919799805,57L299.7225919799805,44L319.8385919799805,44L319.8385919799805,34L299.7225919799805,34L299.7225919799805,22L323.86159197998046,22L323.86159197998046,10ZM331.90759197998045,10L347.99959197998044,10L347.99959197998044,68L331.90759197998045,68L331.90759197998045,10ZM128.73989197998048,68L102.58959197998047,68L102.58959197998047,11L128.73989197998048,11C142.82079197998047,11,145.83819197998048,23,145.83819197998048,26C145.83819197998048,29,144.83239197998046,35,140.80929197998046,39Q148.85549197998046,43,148.85549197998046,53C148.85549197998046,63,138.79769197998047,68,128.73989197998048,68ZM124.71679197998047,22L116.67049197998047,22L116.67049197998047,34L124.71679197998047,34C128.04959197998048,34,130.75139197998047,31.3137,130.75139197998047,28C130.75139197998047,24.6863,128.04959197998048,22,124.71679197998047,22ZM116.67049197998047,44L128.73989197998048,44C132.07279197998048,44,134.77459197998047,46.6863,134.77459197998047,50C134.77459197998047,53.3137,132.07279197998048,56,128.73989197998048,56L116.67049197998047,56L116.67049197998047,44Z" fill-rule="evenodd" fill="#FFFFFF" fill-opacity="1"/></g></g></svg>
